<svg width="32" height="32" viewBox="0 0 32 32" fill="none" xmlns="http://www.w3.org/2000/svg">
<path fill-rule="evenodd" clip-rule="evenodd" d="M16 8.5C16.8284 8.5 17.5 9.17157 17.5 10V16C17.5 16.8284 16.8284 17.5 16 17.5C15.1716 17.5 14.5 16.8284 14.5 16V10C14.5 9.17157 15.1716 8.5 16 8.5Z" fill="#00B37E"/>
<path fill-rule="evenodd" clip-rule="evenodd" d="M14.7007 15.2504C15.1147 14.5329 16.032 14.2867 16.7496 14.7007L21.9496 17.7007C22.6672 18.1147 22.9133 19.032 22.4993 19.7496C22.0853 20.4672 21.168 20.7133 20.4504 20.2993L15.2504 17.2993C14.5329 16.8853 14.2867 15.968 14.7007 15.2504Z" fill="#00B37E"/>
<path fill-rule="evenodd" clip-rule="evenodd" d="M3.9751 5.96252C4.80352 5.96252 5.4751 6.6341 5.4751 7.46252V10.9625H8.9751C9.80353 10.9625 10.4751 11.6341 10.4751 12.4625C10.4751 13.291 9.80353 13.9625 8.9751 13.9625H3.9751C3.14667 13.9625 2.4751 13.291 2.4751 12.4625V7.46252C2.4751 6.6341 3.14667 5.96252 3.9751 5.96252Z" fill="#00B37E"/>
<path fill-rule="evenodd" clip-rule="evenodd" d="M13.5641 3.74094C15.9891 3.25779 18.503 3.50474 20.7876 4.45054C23.0723 5.39633 25.0251 6.99848 26.3991 9.05432C27.7731 11.1102 28.5064 13.5273 28.5064 16C28.5064 18.4727 27.7731 20.8899 26.3991 22.9457C25.0251 25.0015 23.0723 26.6037 20.7876 27.5495C18.503 28.4953 15.9891 28.7422 13.5641 28.2591C11.139 27.7759 8.91176 26.5844 7.16401 24.8352C6.57846 24.2492 6.57885 23.2995 7.16487 22.7139C7.7509 22.1284 8.70064 22.1288 9.28619 22.7148C10.6145 24.0442 12.3072 24.9497 14.1502 25.3169C15.9933 25.6841 17.9038 25.4964 19.6401 24.7776C21.3765 24.0588 22.8607 22.8412 23.9049 21.2787C24.9491 19.7163 25.5064 17.8793 25.5064 16C25.5064 14.1208 24.9491 12.2837 23.9049 10.7213C22.8607 9.15885 21.3765 7.94121 19.6401 7.22241C17.9038 6.5036 15.9933 6.31593 14.1502 6.68311C12.3072 7.0503 10.6145 7.95586 9.28619 9.28523L5.03419 13.5247C4.44755 14.1096 3.4978 14.1083 2.91288 13.5216C2.32795 12.935 2.32935 11.9852 2.916 11.4003L7.16401 7.16478C7.16437 7.16442 7.16473 7.16405 7.1651 7.16369C8.91268 5.41511 11.1395 4.22398 13.5641 3.74094Z" fill="#00B37E"/>
</svg>
